<?xml version="1.0" encoding="UTF-8"?>
<!DOCTYPE svg PUBLIC "-//W3C//DTD SVG 1.1//EN" "http://www.w3.org/Graphics/SVG/1.1/DTD/svg11.dtd">
<!-- Creator: CorelDRAW 2019 (64 Bit) -->
<svg xmlns="http://www.w3.org/2000/svg" xml:space="preserve" width="2008px" height="1772px" version="1.1" style="shape-rendering:geometricPrecision; text-rendering:geometricPrecision; image-rendering:optimizeQuality; fill-rule:evenodd; clip-rule:evenodd"
viewBox="0 0 2008 1771.76"
 xmlns:xlink="http://www.w3.org/1999/xlink">
 <defs>
  <style type="text/css">
   <![CDATA[
    .fil0 {fill:#41ACF5}
   ]]>
  </style>
 </defs>
 <g id="Camada_x0020_1">
  <metadata id="CorelCorpID_0Corel-Layer"/>
  <g id="_2039228326784">
   <g>
    <g>
     <g>
      <path class="fil0" d="M1468.47 1077.21c-32.76,-34.11 -72.27,-52.34 -114.15,-52.34 -41.54,0 -81.39,17.9 -115.5,52l-106.71 106.38c-8.78,-4.73 -17.56,-9.12 -26.01,-13.5 -12.15,-6.08 -23.64,-11.82 -33.43,-17.9 -99.96,-63.49 -190.81,-146.23 -277.94,-253.29 -42.21,-53.36 -70.58,-98.27 -91.18,-143.86 27.7,-25.33 53.36,-51.67 78.35,-77 9.46,-9.46 18.91,-19.25 28.37,-28.7 70.92,-70.92 70.92,-162.78 0,-233.7l-92.2 -92.2c-10.46,-10.47 -21.27,-21.27 -31.4,-32.08 -20.27,-20.94 -41.54,-42.55 -63.49,-62.82 -32.76,-32.42 -71.93,-49.64 -113.14,-49.64 -41.2,0 -81.05,17.22 -114.82,49.64 -0.33,0.34 -0.33,0.34 -0.67,0.68l-114.82 115.84c-43.23,43.22 -67.88,95.91 -73.29,157.03 -8.1,98.61 20.94,190.47 43.23,250.58 54.71,147.58 136.43,284.36 258.35,430.92 147.92,176.63 325.89,316.1 529.19,414.38 77.68,36.81 181.35,80.37 297.19,87.8 7.09,0.34 14.52,0.68 21.27,0.68 78.02,0 143.53,-28.03 194.86,-83.76 0.34,-0.67 1.02,-1.01 1.36,-1.68 17.56,-21.28 37.82,-40.53 59.1,-61.13 14.52,-13.85 29.38,-28.37 43.9,-43.57 33.43,-34.78 50.99,-75.31 50.99,-116.84 0,-41.88 -17.89,-82.07 -52,-115.84l-185.41 -186.08zm120.9 355.61c-0.34,0 -0.34,0.34 0,0 -13.17,14.19 -26.68,27.02 -41.2,41.2 -21.95,20.94 -44.24,42.89 -65.18,67.55 -34.11,36.47 -74.3,53.69 -126.98,53.69 -5.07,0 -10.47,0 -15.54,-0.34 -100.3,-6.41 -193.5,-45.59 -263.41,-79.02 -191.14,-92.53 -358.99,-223.9 -498.46,-390.4 -115.16,-138.8 -192.16,-267.12 -243.16,-404.91 -31.4,-84.09 -42.89,-149.61 -37.82,-211.41 3.38,-39.51 18.58,-72.27 46.61,-100.3l115.16 -115.16c16.54,-15.54 34.1,-23.98 51.33,-23.98 21.27,0 38.5,12.84 49.3,23.64 0.34,0.34 0.68,0.68 1.02,1.02 20.6,19.24 40.18,39.17 60.79,60.45 10.46,10.8 21.27,21.61 32.08,32.75l92.19 92.2c35.8,35.8 35.8,68.89 0,104.69 -9.79,9.79 -19.25,19.59 -29.04,29.04 -28.37,29.05 -55.38,56.06 -84.76,82.4 -0.68,0.68 -1.36,1.02 -1.69,1.69 -29.05,29.05 -23.64,57.41 -17.56,76.66 0.33,1.02 0.67,2.03 1.01,3.04 23.98,58.09 57.75,112.8 109.08,177.98l0.34 0.33c93.21,114.83 191.48,204.32 299.89,272.88 13.84,8.78 28.03,15.87 41.53,22.62 12.16,6.08 23.64,11.82 33.44,17.9 1.35,0.68 2.7,1.69 4.05,2.36 11.48,5.74 22.29,8.45 33.43,8.45 28.03,0 45.59,-17.56 51.34,-23.31l115.49 -115.49c11.49,-11.49 29.72,-25.33 51,-25.33 20.94,0 38.16,13.17 48.63,24.65 0.34,0.34 0.34,0.34 0.67,0.68l186.08 186.08c34.79,34.44 34.79,69.9 0.34,105.7z" data-original="#000000" data-old_color="#000000"/>
      <path class="fil0" d="M1068.62 466.63c88.48,14.86 168.85,56.73 233.02,120.9 64.16,64.16 105.7,144.54 120.9,233.02 3.71,22.29 22.96,37.82 44.91,37.82 2.71,0 5.07,-0.33 7.77,-0.67 24.99,-4.05 41.54,-27.69 37.49,-52.68 -18.24,-107.06 -68.9,-204.66 -146.23,-281.99 -77.34,-77.34 -174.94,-128 -281.99,-146.23 -24.99,-4.06 -48.29,12.49 -52.68,37.14 -4.39,24.66 11.82,48.64 36.81,52.69z" data-original="#000000" data-old_color="#000000"/>
      <path class="fil0" d="M1802.13 791.85c-30.06,-176.29 -113.14,-336.7 -240.79,-464.36 -127.66,-127.66 -288.07,-210.73 -464.36,-240.79 -24.65,-4.39 -47.95,12.5 -52.34,37.15 -4.05,24.99 12.5,48.29 37.49,52.68 157.37,26.68 300.9,101.32 415.04,215.13 114.15,114.14 188.45,257.67 215.13,415.04 3.71,22.29 22.96,37.83 44.91,37.83 2.7,0 5.07,-0.34 7.77,-0.68 24.65,-3.71 41.54,-27.35 37.15,-52z" data-original="#000000" data-old_color="#000000"/>
     </g>
    </g>
   </g>
  </g>
 </g>
</svg>
